<svg xmlns="http://www.w3.org/2000/svg" viewBox="0 0 1080 1080" role="img" aria-labelledby="asset-title asset-desc"><title id="asset-title">Current Offers</title><desc id="asset-desc">Timeless Tiles demo offer graphic featuring Calacatta Gold with its regular and current demo prices.</desc><defs><pattern id="grid" width="56" height="56" patternUnits="userSpaceOnUse"><path d="M56 0H0V56" fill="none" stroke="#6F2435" stroke-opacity=".055"/></pattern></defs><rect width="1080" height="1080" fill="#FAF8F4"/><rect width="1080" height="1080" fill="url(#grid)"/><rect width="1080" height="12" fill="#6F2435"/><rect y="12" width="19" height="1068" fill="#A87947"/><circle cx="1008" cy="140" r="49" fill="#A87947"/><clipPath id="assetinstagram05saleselectionsvgimg0"><rect x="590" y="205" width="410" height="525" rx="22"/></clipPath><svg x="590" y="205" width="410" height="525" viewBox="0 0 1200 1200" preserveAspectRatio="xMidYMid slice" clip-path="url(#assetinstagram05saleselectionsvgimg0)"><defs><linearGradient id="assetinstagram05saleselectionsvgimg0-g3506651842" x1="0" y1="0" x2="1" y2="1"><stop stop-color="#eee5d4"/><stop offset="1" stop-color="#cfc1a9"/></linearGradient><filter id="assetinstagram05saleselectionsvgimg0-noise"><feTurbulence baseFrequency=".65" numOctaves="2" seed="89"/><feColorMatrix values="1 0 0 0 0 0 1 0 0 0 0 0 1 0 0 0 0 0 .35 0"/></filter><filter id="assetinstagram05saleselectionsvgimg0-shadow"><feGaussianBlur stdDeviation="25"/></filter></defs><rect width="1200" height="1200" fill="#f1ede7"/><ellipse cx="610" cy="980" rx="410" ry="65" fill="#211e1c" opacity=".16" filter="url(#assetinstagram05saleselectionsvgimg0-shadow)"/><rect x="160" y="140" width="880" height="880" rx="6" fill="url(#assetinstagram05saleselectionsvgimg0-g3506651842)"/><rect x="180" y="160" width="840" height="840" fill="none" stroke="#fff" stroke-opacity=".4" stroke-width="8"/><path d="M230 320c170 100 65 175 265 260s60 170 380 240" fill="none" stroke="#7b7771" stroke-opacity=".5" stroke-width="10"/><path d="M700 270c-65 160 100 190-50 430" fill="none" stroke="#a87947" stroke-opacity=".35" stroke-width="7"/><path d="M220 210h500L350 960H220z" fill="#fff" opacity=".18"/></svg><rect x="590" y="808" width="410" height="82" rx="12" fill="#FFFFFF"/><text x="608" y="838" font-family="Arial,sans-serif" font-size="17" fill="#736C66">REGULAR ₹2,750 / sq.m.</text><text x="608" y="873" font-family="Arial,sans-serif" font-size="19" font-weight="700" fill="#6F2435">DEMO ₹2,490 / sq.m.</text><svg x="70" y="54" width="260" height="62" viewBox="0 0 400 96" preserveAspectRatio="xMinYMid meet"><path fill="#6F2435" d="M4 8h35v35H4zM49 8h35v35H49zM4 53h35v35H4z"/><path fill="#A87947" d="m66.5 49 20.5 20.5L66.5 90 46 69.5z"/><text x="108" y="58" fill="#211E1C" font-family="Georgia,serif" font-size="39">Timeless Tiles</text></svg><text x="70" y="345" font-family="Georgia,serif" font-size="66" font-weight="700" fill="#211E1C">Current Offers</text><text x="74" y="515" font-family="Arial,sans-serif" font-size="22" fill="#514943">Calacatta Gold · ₹2,750 → ₹2,490 / sq.m.</text><rect x="70" y="755" width="465" height="76" rx="12" fill="#6F2435"/><text x="302.5" y="803.64" text-anchor="middle" font-family="Arial,sans-serif" font-size="21" font-weight="700" fill="#FFFFFF">View Offers</text><text x="70" y="930" font-family="Arial,sans-serif" font-size="15" fill="#736C66">FICTIONAL ACADEMIC DEMO</text></svg>
